<?xml version="1.0" encoding="utf-8"?>
<!-- Generator: Adobe Illustrator 19.1.0, SVG Export Plug-In . SVG Version: 6.00 Build 0)  -->
<svg version="1.1" id="Layer_1" xmlns="http://www.w3.org/2000/svg" xmlns:xlink="http://www.w3.org/1999/xlink" x="0px" y="0px"
	 viewBox="0 0 174.555 40.864" enable-background="new 0 0 174.555 40.864" xml:space="preserve">
<path fill="#555555" d="M65.05,36.723h-1.582v-8.399h-3.163V26.87h7.923v1.455H65.05V36.723z M76.342,36.723h-6.339V26.87h6.23
	v1.442h-4.646v2.591h4.449v1.432h-4.449v2.941h4.755V36.723z M82.455,36.885c-1.333,0-2.369-0.44-3.073-1.31
	c-0.702-0.859-1.055-2.111-1.055-3.725c0-1.611,0.369-2.88,1.096-3.768c0.735-0.899,1.79-1.352,3.135-1.352
	c1.057,0,1.907,0.246,2.53,0.737c0.63,0.498,0.96,1.189,0.982,2.058l0.003,0.158h-1.65l-0.012-0.14
	c-0.041-0.439-0.229-0.79-0.578-1.07c-0.354-0.285-0.794-0.427-1.312-0.427c-0.799,0-1.401,0.313-1.845,0.96
	c-0.446,0.654-0.674,1.6-0.674,2.809c0,1.18,0.22,2.098,0.653,2.732c0.425,0.626,1.014,0.932,1.801,0.932
	c0.565,0,1.023-0.134,1.357-0.401c0.334-0.263,0.515-0.621,0.56-1.093l0.014-0.14h1.713l-0.001,0.159
	c-0.018,0.879-0.364,1.59-1.025,2.11C84.422,36.627,83.542,36.885,82.455,36.885 M95.846,36.723H94.27v-4.336h-4.383v4.336h-1.608
	V26.87h1.608v4.071h4.383V26.87h1.576V36.723z M106.673,36.723h-1.811l-0.041-0.076l-4.456-7.608v7.684h-1.488V26.87h2.062
	l4.276,7.363V26.87h1.459V36.723z M113.603,36.885c-1.423,0-2.543-0.452-3.334-1.339c-0.788-0.884-1.186-2.135-1.186-3.721
	c0-1.613,0.395-2.879,1.175-3.761c0.785-0.886,1.909-1.334,3.345-1.334c1.43,0,2.554,0.445,3.333,1.327
	c0.774,0.878,1.163,2.145,1.163,3.768c0,1.597-0.392,2.854-1.169,3.73C116.146,36.435,115.027,36.885,113.603,36.885
	 M113.582,28.083c-0.917,0-1.599,0.305-2.086,0.932c-0.49,0.628-0.739,1.553-0.739,2.747c0,1.199,0.249,2.129,0.742,2.768
	c0.489,0.636,1.172,0.947,2.083,0.947c0.926,0,1.611-0.304,2.097-0.928c0.489-0.629,0.735-1.556,0.735-2.763
	c0-1.206-0.248-2.139-0.736-2.769C115.188,28.39,114.504,28.083,113.582,28.083 M126.389,36.723h-5.911V26.87h1.571v8.405h4.339
	V36.723z M132.248,36.885c-1.421,0-2.54-0.452-3.33-1.339c-0.79-0.884-1.186-2.135-1.186-3.721c0-1.613,0.393-2.879,1.174-3.761
	c0.783-0.886,1.91-1.334,3.342-1.334c1.435,0,2.557,0.445,3.336,1.327c0.773,0.878,1.165,2.145,1.165,3.768
	c0,1.597-0.393,2.854-1.171,3.73C134.794,36.435,133.674,36.885,132.248,36.885 M132.23,28.083c-0.917,0-1.599,0.305-2.086,0.932
	c-0.492,0.628-0.739,1.553-0.739,2.747c0,1.199,0.249,2.129,0.742,2.768c0.49,0.636,1.171,0.947,2.083,0.947
	c0.926,0,1.611-0.304,2.097-0.928c0.49-0.629,0.736-1.556,0.736-2.763c0-1.206-0.249-2.139-0.738-2.769
	C133.838,28.39,133.152,28.083,132.23,28.083 M143.482,36.897c-1.477,0-2.663-0.443-3.522-1.321
	c-0.859-0.875-1.294-2.076-1.294-3.57c0-1.645,0.427-2.95,1.268-3.876c0.847-0.931,2.042-1.401,3.548-1.401
	c1.048,0,1.893,0.235,2.514,0.702c0.633,0.477,0.966,1.136,0.995,1.963l0.005,0.16h-1.701l-0.003-0.151
	c-0.017-0.397-0.2-0.717-0.565-0.985c-0.369-0.27-0.846-0.405-1.418-0.405c-0.944,0-1.664,0.326-2.196,0.999
	c-0.533,0.676-0.802,1.629-0.802,2.838c0,1.165,0.285,2.079,0.849,2.721c0.557,0.635,1.356,0.957,2.375,0.957
	c0.26,0,0.544-0.027,0.844-0.082c0.276-0.05,0.594-0.124,0.952-0.223v-2.571h-1.989V31.27h3.649v4.969l-0.108,0.036
	c-0.635,0.209-1.236,0.367-1.786,0.465C144.542,36.845,144,36.897,143.482,36.897 M151.525,36.723h-1.584v-9.852h1.584V36.723z
	 M160.896,36.723h-6.341V26.87h6.233v1.442h-4.649v2.591h4.453v1.432h-4.453v2.941h4.757V36.723z M166.543,36.885
	c-1.192,0-2.103-0.246-2.709-0.732c-0.616-0.497-0.926-1.245-0.926-2.224v-0.31h1.661l0.006,0.149
	c0.023,0.576,0.199,1.004,0.519,1.268c0.329,0.271,0.844,0.409,1.534,0.409c0.679,0,1.218-0.14,1.605-0.417
	c0.375-0.266,0.556-0.622,0.556-1.087c0-0.641-0.706-1.146-2.104-1.5c-0.158-0.039-0.287-0.072-0.381-0.099
	c-0.099-0.023-0.243-0.061-0.433-0.109c-0.837-0.203-1.409-0.402-1.748-0.604c-0.349-0.215-0.624-0.506-0.818-0.87
	c-0.194-0.36-0.293-0.764-0.293-1.197c0-0.875,0.345-1.578,1.023-2.085c0.664-0.497,1.584-0.746,2.735-0.746
	c1.017,0,1.833,0.22,2.425,0.66c0.606,0.451,0.914,1.07,0.914,1.849v0.303h-1.59l-0.006-0.147c-0.021-0.425-0.179-0.741-0.487-0.963
	c-0.317-0.228-0.777-0.347-1.373-0.347c-0.613,0-1.108,0.134-1.464,0.395c-0.348,0.255-0.516,0.585-0.516,1.013
	c0,0.53,0.645,0.969,1.922,1.298l0.255,0.063c1.524,0.399,2.473,0.789,2.906,1.196c0.445,0.408,0.668,0.987,0.668,1.713
	c0,1.001-0.34,1.783-1.017,2.323C168.746,36.614,167.78,36.885,166.543,36.885 M61.028,21.126V3.835h3.682v7.469l5.638-7.469h4.15
	l-6.072,7.737l6.672,9.553h-4.292l-6.095-8.955v8.955H61.028z M76.375,21.126V3.835h11.466v2.862h-7.715v4.077h7.233v2.816h-7.233
	v4.653h7.985v2.883H76.375z M94.891,21.126v-6.389L89.053,3.835h3.89l3.963,7.397l3.576-7.397h3.844l-5.732,10.902v6.389H94.891z
	 M104.019,15.51h3.624c0,1.151,0.279,2.013,0.849,2.593c0.565,0.578,1.42,0.867,2.561,0.867c0.911,0,1.659-0.225,2.232-0.675
	c0.575-0.449,0.862-1.018,0.862-1.705c0-1.086-1.356-2.09-4.068-3.012l-0.386-0.129c-0.088-0.032-0.203-0.071-0.354-0.118
	c-1.515-0.5-2.608-1.003-3.28-1.502c-0.487-0.357-0.861-0.818-1.122-1.376c-0.26-0.559-0.39-1.181-0.39-1.858
	c0-1.555,0.585-2.788,1.763-3.699c1.174-0.91,2.782-1.365,4.812-1.365c1.898,0,3.369,0.442,4.414,1.324
	c1.043,0.882,1.567,2.123,1.567,3.717v0.093h-3.213c-0.079-0.897-0.375-1.584-0.885-2.051c-0.512-0.468-1.218-0.703-2.117-0.703
	c-0.87,0-1.556,0.197-2.068,0.597c-0.513,0.399-0.768,0.934-0.768,1.605c0,1.048,1.421,2.035,4.265,2.957l0.222,0.069
	c2.176,0.72,3.603,1.439,4.286,2.158c0.683,0.718,1.026,1.711,1.026,2.977c0,1.609-0.615,2.87-1.848,3.782
	c-1.23,0.909-2.942,1.365-5.141,1.365c-2.281,0-3.993-0.475-5.132-1.42c-1.142-0.947-1.713-2.364-1.713-4.256V15.51z M120.202,3.835
	h3.682v17.291h-3.682V3.835z M142.152,11.911v8.09c-0.954,0.477-1.977,0.833-3.073,1.067c-1.092,0.235-2.303,0.353-3.635,0.353
	c-2.92,0-5.179-0.756-6.775-2.268c-1.593-1.512-2.391-3.658-2.391-6.432c0-2.867,0.802-5.114,2.405-6.735
	c1.6-1.621,3.823-2.431,6.67-2.431c2.101,0,3.768,0.481,4.998,1.44c1.233,0.962,1.848,2.247,1.848,3.858v0.317h-3.482
	c-0.049-1.064-0.377-1.873-0.985-2.428c-0.612-0.555-1.473-0.832-2.592-0.832c-1.57,0-2.809,0.597-3.723,1.793
	c-0.909,1.196-1.365,2.83-1.365,4.9c0,2.032,0.48,3.571,1.436,4.619c0.958,1.049,2.366,1.571,4.225,1.571
	c0.486,0,0.964-0.028,1.436-0.088c0.472-0.058,0.938-0.147,1.388-0.264l0.015-3.773h-3.293v-2.757H142.152z M145.172,21.126V3.835
	h3.728v6.916h6.529V3.835h3.6v17.291h-3.6v-7.56H148.9v7.56H145.172z M165.75,21.126V6.649h-5.089V3.835h13.894v2.814h-5.089v14.477
	H165.75z"/>
<path fill="#EB0029" d="M53.218,21.126c-0.422-0.064-1.304-0.504-1.937-2.92c-1.016-3.866-1.494-7.18-3.214-7.18
	c-1.72,0-2.502,3.315-3.518,7.18c-0.6,2.287-1.231,2.92-2.247,2.92c-0.952,0-1.937-0.463-3.386-6.438
	C37.644,9.462,36.783,0,32.526,0c-4.257,0-5.512,12.333-6.06,14.711c-0.674,2.93-2.349,6.416-4.456,6.416
	c-2.106,0-3.196-2.426-3.825-5.029c-0.967-3.984-2.065-9.754-4.865-9.754c-2.801,0-3.712,4.778-4.947,9.997
	c-0.727,3.074-1.889,4.786-3.928,4.786H0v0.019c0.58,0.176,1.742,1.136,2.039,2.995c0.706,4.393,1.245,7.109,2.776,7.109
	c1.535,0,2.092-2.341,2.979-5.991c0.694-2.861,1.778-4.109,3.073-4.109c1.904,0,2.8,2.304,3.838,6.706
	c2.069,8.771,2.513,13.009,5.844,13.009c3.31,0,3.825-4.247,6.051-13.009c0.966-3.811,2.772-6.709,4.878-6.709
	s3.611,2.81,4.376,5.046c1.66,4.851,2.425,6.678,4.253,6.678c1.825,0,2.861-2.194,4.472-7.487c1.013-3.331,1.161-4.237,4.15-4.237
	h4.49V21.126z"/>
</svg>
